<svg width="25" height="25" viewBox="0 0 25 25" fill="none" xmlns="http://www.w3.org/2000/svg">
<circle cx="12.5" cy="12.5" r="12.5" fill="#D3C013"/>
<path d="M14.5332 6.97656H17.6094V8.05078H15.8613C16.1803 8.36979 16.4017 8.65951 16.5254 8.91992C16.6816 9.27148 16.7598 9.63932 16.7598 10.0234C16.7598 10.6745 16.5775 11.2409 16.2129 11.7227C15.8548 12.1979 15.3633 12.5723 14.7383 12.8457C14.1198 13.1126 13.5697 13.2461 13.0879 13.2461C13.0488 13.2461 12.6582 13.2298 11.916 13.1973C11.623 13.1973 11.3757 13.2949 11.1738 13.4902C10.9785 13.679 10.8809 13.9069 10.8809 14.1738C10.8809 14.4082 10.9688 14.6003 11.1445 14.75C11.3268 14.8997 11.6198 14.9746 12.0234 14.9746L13.7129 14.9551C15.0801 14.9551 16.0208 15.1048 16.5352 15.4043C17.2708 15.821 17.6387 16.4622 17.6387 17.3281C17.6387 17.8815 17.4694 18.3828 17.1309 18.832C16.7923 19.2878 16.3464 19.623 15.793 19.8379C14.9531 20.1569 13.9863 20.3164 12.8926 20.3164C12.0723 20.3164 11.3236 20.235 10.6465 20.0723C9.9694 19.916 9.48438 19.6947 9.19141 19.4082C8.89844 19.1283 8.75195 18.832 8.75195 18.5195C8.75195 18.2201 8.86263 17.9499 9.08398 17.709C9.31185 17.4746 9.73177 17.276 10.3438 17.1133C9.4974 16.6966 9.07422 16.1172 9.07422 15.375C9.07422 14.9258 9.24674 14.4896 9.5918 14.0664C9.93685 13.6432 10.4837 13.2754 11.2324 12.9629C10.36 12.6439 9.72852 12.224 9.33789 11.7031C8.94727 11.1823 8.75195 10.5801 8.75195 9.89648C8.75195 9.00456 9.11654 8.23307 9.8457 7.58203C10.5749 6.92448 11.5124 6.5957 12.6582 6.5957C13.2637 6.5957 13.8887 6.72266 14.5332 6.97656ZM12.8438 7.20117C12.4661 7.20117 12.1471 7.39323 11.8867 7.77734C11.6263 8.15495 11.4961 8.94271 11.4961 10.1406C11.4961 11.1107 11.623 11.778 11.877 12.1426C12.1374 12.5007 12.4434 12.6797 12.7949 12.6797C13.1855 12.6797 13.5111 12.5007 13.7715 12.1426C14.0319 11.7845 14.1621 11.0879 14.1621 10.0527C14.1621 8.88737 14.0156 8.0931 13.7227 7.66992C13.5143 7.35742 13.2214 7.20117 12.8438 7.20117ZM12.2676 17.3477C11.6035 17.3477 11.1641 17.403 10.9492 17.5137C10.5781 17.7155 10.3926 17.9889 10.3926 18.334C10.3926 18.666 10.5846 18.9655 10.9688 19.2324C11.3529 19.5059 12.0755 19.6426 13.1367 19.6426C14.0417 19.6426 14.7513 19.5221 15.2656 19.2812C15.7865 19.0404 16.0469 18.7018 16.0469 18.2656C16.0469 18.1029 15.998 17.9661 15.9004 17.8555C15.7246 17.6602 15.4577 17.5267 15.0996 17.4551C14.748 17.3835 13.804 17.3477 12.2676 17.3477Z" fill="#938403"/>
</svg>
